# xmcd
#
# Track frame offsets:
#	150
#	19512
#	36365
#	69844
#	113066
#	139666
#	167057
#	191922
#	229814
#	258110
#
# Disc length: 4098
#
# Revision: 1
# Processed by: cddbd v1.5.1PL0 Copyright (c) Steve Scherf et al.
# Submitted via: CDex 1.51
# Normalized: r0:DSETVAR1,TDELIM( - )
#
DISCID=7f10000a
DTITLE=Various Artist - Blue Note Riffs
DYEAR=1999
DGENRE=Jazz
TTITLE0=Clifford Brown - Daahound
TTITLE1=Paul Chambers - Just for the love
TTITLE2=Sonny Clark - Dial S for Sonny
TTITLE3=Art Blakey's Jazz Messengers - Moanin'n
TTITLE4=Jimmy Smith - Gracie
TTITLE5=Tina Brooks - For Heaven's Sake
TTITLE6=Herbie Hancock - Cantaloupe Island
TTITLE7=Wayne Shorter - Speak no Evil
TTITLE8=Donald Byrd - Blackjack
TTITLE9=Lee Morgan - Croquet Ballet
EXTD=YEAR: 1999
EXTT0=
EXTT1=
EXTT2=
EXTT3=
EXTT4=
EXTT5=
EXTT6=
EXTT7=
EXTT8=
EXTT9=
PLAYORDER=
